HIERARCHY
ROOT Hips
{
  OFFSET 0 0 0
  CHANNELS 6 Xposition Yposition Zposition Zrotation Xrotation Yrotation
  JOINT Spine
  {
    OFFSET 0 10.1816 0.131521
    CHANNELS 3 Zrotation Xrotation Yrotation
    JOINT Spine1
    {
      OFFSET 0 10.0835 -1.0008
      CHANNELS 3 Zrotation Xrotation Yrotation
      JOINT Spine2
      {
        OFFSET 0 9.10001 -1.37342
        CHANNELS 3 Zrotation Xrotation Yrotation
        JOINT Neck
        {
          OFFSET 0 16.6717 -2.51617
          CHANNELS 3 Zrotation Xrotation Yrotation
          JOINT Head
          {
            OFFSET 0 9.61788 1.68501
            CHANNELS 3 Zrotation Xrotation Yrotation
            End Site
            {
              OFFSET 0 0 0
            }
          }
        }
        JOINT LeftShoulder
        {
          OFFSET 4.57045 10.946 -2.62799
          CHANNELS 3 Zrotation Xrotation Yrotation
          JOINT LeftArm
          {
            OFFSET 10.5924 -0.524583 -2.23212
            CHANNELS 3 Zrotation Xrotation Yrotation
            JOINT LeftForeArm
            {
              OFFSET 27.8415 -8.94286e-05 3.74589e-05
              CHANNELS 3 Zrotation Xrotation Yrotation
              JOINT LeftHand
              {
                OFFSET 28.3288 -1.74407e-05 3.78045e-05
                CHANNELS 3 Zrotation Xrotation Yrotation
                End Site
                {
                  OFFSET 0 0 0
                }
              }
            }
          }
        }
        JOINT RightShoulder
        {
          OFFSET -4.56997 10.9462 -2.62802
          CHANNELS 3 Zrotation Xrotation Yrotation
          JOINT RightArm
          {
            OFFSET -10.5928 -0.524798 -2.2321
            CHANNELS 3 Zrotation Xrotation Yrotation
            JOINT RightForeArm
            {
              OFFSET -27.8415 -3.30792e-05 1.16763e-05
              CHANNELS 3 Zrotation Xrotation Yrotation
              JOINT RightHand
              {
                OFFSET -28.3288 0 5.5816e-05
                CHANNELS 3 Zrotation Xrotation Yrotation
                End Site
                {
                  OFFSET 0 0 0
                }
              }
            }
          }
        }
      }
    }
  }
  JOINT LeftUpLeg
  {
    OFFSET 8.20778 -6.75171 -1.59956
    CHANNELS 3 Zrotation Xrotation Yrotation
    JOINT LeftLeg
    {
      OFFSET 0 -44.3705 0.284643
      CHANNELS 3 Zrotation Xrotation Yrotation
      JOINT LeftFoot
      {
        OFFSET 0 -44.4279 -2.98219
        CHANNELS 3 Zrotation Xrotation Yrotation
        JOINT LeftToeBase
        {
          OFFSET 0 -8.72867 10.7106
          CHANNELS 3 Zrotation Xrotation Yrotation
          End Site
          {
            OFFSET 0 0 0
          }
        }
      }
    }
  }
  JOINT RightUpLeg
  {
    OFFSET -8.2078 -6.75166 -1.59956
    CHANNELS 3 Zrotation Xrotation Yrotation
    JOINT RightLeg
    {
      OFFSET 0 -44.3705 0.286156
      CHANNELS 3 Zrotation Xrotation Yrotation
      JOINT RightFoot
      {
        OFFSET 0 -44.4277 -2.98379
        CHANNELS 3 Zrotation Xrotation Yrotation
        JOINT RightToeBase
        {
          OFFSET 0 -8.72867 10.7106
          CHANNELS 3 Zrotation Xrotation Yrotation
          End Site
          {
            OFFSET 0 0 0
          }
        }
      }
    }
  }
}
MOTION
Frames:	16
Frame Time:	0.0333333
2.28728 97.143 -4.66736 -4.36043 -1.45639 -54.5293 5.01713 4.3866 -0.299777 0.615139 3.14528 0.0105292 0.620735 3.15067 -0.0132525 0.0138595 4.62478 3.49139 -10.7235 -0.178325 21.0879 -0.566299 0.695081 -2.38976 -28.9648 -43.2993 -0.437276 3.31695e-05 7.65886e-06 -87.5361 -2.67032 6.89203 -3.01828 2.22132 0.80229 2.03001 41.0144 -16.436 53.5542 3.16634e-05 -1.01781e-05 102.847 5.67038 -13.7139 16.5104 27.0119 -15.1924 24.2665 -1.24636 29.0091 -5.35744 -11.0745 1.82854 0.469695 1.53895e-05 -9.17751 1.03192e-07 -16.8971 -14.51 -16.6598 -2.24313 40.2747 8.96623 16.2471 -10.5184 2.31397 -5.87498e-06 -12.5619 2.26447e-05 
2.27948 97.136 -4.88063 -5.13543 -1.82073 -54.0647 5.096 4.11268 -0.18629 0.751035 3.1462 0.0105292 0.757035 3.15178 -0.0132525 0.065076 4.69661 3.42569 -10.6529 0.144044 20.8453 -0.420031 0.640459 -2.28807 -29.3988 -43.3819 -1.02217 3.32143e-05 6.53661e-06 -87.8973 -3.19429 7.67143 -2.83012 2.08573 0.759596 1.94601 40.9838 -16.4981 53.2786 3.16803e-05 -1.02515e-05 102.941 6.05333 -13.9112 16.3692 27.1155 -14.3877 23.9988 -1.18096 28.5456 -5.86392 -10.6851 1.46768 -0.328641 1.5389e-05 -8.88468 1.03109e-07 -16.8014 -14.582 -16.4985 -2.43397 41.9505 9.16263 16.6181 -9.85295 2.1779 -5.38614e-06 -13.7633 2.2756e-05 
2.28839 97.1139 -5.04513 -5.62768 -2.01602 -53.8257 5.1308 3.97498 -0.141764 0.901504 3.13061 0.00217866 0.907332 3.13632 -0.0180311 0.0422647 4.72638 3.3921 -10.6408 0.391012 20.6522 -0.344433 0.598893 -2.13824 -29.6623 -43.2584 -1.45418 3.32298e-05 6.09982e-06 -88.0379 -3.37409 7.73196 -2.74204 1.88946 0.723466 1.91764 40.9025 -16.5216 53.0216 3.16741e-05 -1.02249e-05 102.907 6.10412 -14.2497 16.5286 27.2589 -13.888 23.8646 -1.16863 28.2627 -6.16375 -10.4077 1.17285 -0.917746 1.53886e-05 -8.67498 1.0305e-07 -16.4443 -14.2177 -16.318 -2.58049 42.2357 9.27968 16.2217 -10.2301 2.21874 -5.31933e-06 -13.9266 2.2772e-05 
2.29576 97.0726 -5.1666 -5.76133 -2.04531 -53.873 5.08299 4.02546 -0.194101 1.06546 3.0807 -0.0173344 1.07063 3.08645 -0.0344839 -0.0796321 4.71032 3.40244 -10.668 0.492385 20.519 -0.349277 0.569569 -1.9195 -29.693 -42.8451 -1.66097 3.32138e-05 6.5505e-06 -87.8928 -3.18562 6.74948 -2.72509 1.60542 0.695701 1.9738 40.7877 -16.4504 52.7016 3.16264e-05 -1.00145e-05 102.637 5.98383 -14.6738 17.1803 27.4281 -13.7614 23.8987 -1.25055 28.2645 -6.22809 -10.2338 1.04685 -1.1733 1.53885e-05 -8.60441 1.03031e-07 -16.2513 -14.2838 -16.1635 -2.74088 42.4809 9.42103 16.19 -10.6353 2.3122 -5.36071e-06 -13.8255 2.27621e-05 
2.33368 96.9897 -5.241 -5.59469 -1.96199 -54.2435 4.97379 4.28461 -0.310144 1.19893 2.99642 -0.0420089 1.20318 3.00218 -0.0564617 -0.259143 4.65526 3.44954 -10.6685 0.328028 20.456 -0.391914 0.546421 -1.65446 -29.4151 -42.074 -1.59229 3.31523e-05 8.04881e-06 -87.4105 -2.80787 4.87309 -2.72991 1.25397 0.676853 2.12962 40.8138 -16.2587 52.158 3.15467e-05 -9.65194e-06 102.172 6.31912 -14.8144 17.6928 27.625 -13.9521 24.09 -1.45718 28.6266 -6.10603 -10.1147 0.970005 -1.05868 1.53885e-05 -8.63294 1.03039e-07 -16.2508 -14.7956 -16.0276 -2.93809 42.8104 9.59192 16.3617 -11.0292 2.48658 -5.45123e-06 -13.604 2.27406e-05 
2.43798 96.8254 -5.2865 -5.30976 -1.86597 -54.9338 4.86777 4.74313 -0.411386 1.23843 2.89977 -0.0592701 1.24192 2.90558 -0.0715096 -0.402729 4.57669 3.51255 -10.5643 -0.204901 20.4837 -0.402789 0.517703 -1.36298 -28.8096 -40.9518 -1.3139 3.30202e-05 1.05738e-05 -86.5974 -2.53248 2.67295 -2.7134 0.878626 0.665872 2.38947 41.2925 -15.9881 51.2502 3.14778e-05 -9.32678e-06 101.756 7.99628 -14.1562 16.6808 27.8728 -14.2808 24.3874 -1.77074 29.3675 -5.88339 -10.0072 0.682819 -0.667336 1.53885e-05 -8.61565 1.03034e-07 -16.3914 -15.6547 -15.8645 -3.22229 43.3868 9.8239 16.4345 -11.4751 2.81664 -5.53396e-06 -13.4013 2.27213e-05 
2.56878 96.5457 -5.34667 -5.01157 -1.8133 -55.9767 4.74498 5.34613 -0.419635 1.1894 2.84851 -0.0597533 1.19272 2.85435 -0.0701555 -0.457029 4.45449 3.58919 -10.3551 -1.13873 20.6675 -0.366853 0.474186 -1.00256 -27.9559 -39.3359 -0.99707 3.27436e-05 1.44947e-05 -85.3332 -2.54839 0.950899 -2.79735 0.45153 0.653084 2.75066 42.5273 -15.68 49.8111 3.14817e-05 -9.34547e-06 101.78 11.6717 -12.0836 12.0914 28.2558 -14.603 24.8454 -2.19007 30.5028 -5.63097 -9.89023 0.0952914 -0.126662 1.53882e-05 -8.42626 1.02983e-07 -16.578 -16.8175 -15.5675 -3.67697 44.3326 10.1736 16.4265 -12.0518 3.38528 -5.61974e-06 -13.1907 2.27016e-05 
2.73987 96.124 -5.4685 -4.39168 -1.78225 -57.3244 4.32899 5.89834 -0.338194 1.2007 2.83986 -0.0546665 1.20411 2.84569 -0.0618762 -0.487604 4.28649 3.67633 -10.198 -2.37721 20.9398 -0.330624 0.434273 -0.673113 -26.9822 -36.6433 -0.572926 3.21177e-05 2.07841e-05 -83.3004 -2.77035 0.499179 -3.07312 0.0498784 0.636303 3.09632 43.6171 -14.9783 47.5996 3.14788e-05 -9.33178e-06 101.763 15.4658 -8.98074 5.30623 28.6998 -15.2516 25.4416 -2.78878 32.0509 -5.28342 -9.81505 -0.517706 0.414069 1.53878e-05 -8.20187 1.02924e-07 -17.0339 -18.6567 -15.2819 -4.25829 45.7511 10.6183 16.7711 -12.6339 4.2505 -5.76932e-06 -12.8226 2.26679e-05 
3.0716 95.5935 -5.66199 -3.26217 -1.72813 -58.7996 3.63138 6.38142 -0.290654 1.28875 2.72927 -0.0628653 1.29182 2.73514 -0.0647237 -0.522484 4.19411 3.71843 -10.2001 -3.96528 21.0438 -0.270858 0.409119 -0.489357 -25.8795 -32.1166 0.0652693 3.08239e-05 2.98018e-05 -80.3702 -2.89417 0.82339 -3.17869 -0.0375377 0.644509 3.29775 43.3189 -13.2082 44.64 3.12752e-05 -8.29404e-06 100.439 16.6684 -6.74632 1.21651 28.997 -16.4558 25.9687 -3.54304 33.723 -4.22807 -9.8362 -1.08501 0.742904 1.53875e-05 -8.04454 1.02884e-07 -17.9319 -21.2265 -15.2837 -4.80466 47.3544 11.0835 17.5239 -13.0957 5.48175 -6.01107e-06 -12.2254 2.26155e-05 
3.46905 95.09 -5.88868 -2.03036 -1.51685 -60.4026 3.20928 7.02142 -0.378945 1.26764 2.55347 -0.0816679 1.27014 2.55946 -0.0798329 -0.582331 4.16809 3.73772 -10.2706 -6.02847 21.0275 -0.216235 0.359983 -0.0679635 -24.6491 -25.0733 0.238778 2.84472e-05 4.14414e-05 -76.5488 -2.62142 -0.0282221 -3.0599 0.0749168 0.671666 3.42352 43.4338 -10.5718 41.133 3.09925e-05 -6.57671e-06 98.2603 18.2642 -5.46437 -2.27725 29.4525 -17.6935 26.7181 -4.34443 35.2166 -2.53191 -9.77255 -1.64793 0.788836 1.5387e-05 -7.80671 1.02824e-07 -18.6878 -23.9176 -15.3142 -5.23883 48.6314 11.519 18.1767 -13.4902 6.82552 -6.33938e-06 -11.41 2.25483e-05 
3.8393 94.728 -6.1263 -0.894932 -1.06401 -61.9933 3.25983 7.71409 -0.580812 1.07433 2.58754 -0.101121 1.07631 2.59382 -0.100532 -0.775146 4.01335 3.82998 -10.2395 -8.14184 21.1351 -0.23779 0.292275 0.611321 -23.5487 -15.8631 -0.683977 2.48103e-05 5.4447e-05 -72.2046 -2.19307 -2.71014 -3.01495 0.0309816 0.667153 3.45184 46.7729 -8.85761 36.6349 3.07937e-05 -5.01992e-06 96.2958 24.0624 -2.93828 -10.6634 30.2524 -18.6965 27.8394 -5.15271 36.3133 -1.15136 -9.40798 -2.0929 0.712122 1.53865e-05 -7.53579 1.02759e-07 -18.9586 -26.5234 -15.216 -5.44497 49.572 11.6988 18.2039 -13.4919 7.70155 -6.49747e-06 -11.0157 2.25175e-05 
4.24683 94.6152 -6.43039 0.398721 -0.540277 -63.1223 3.25473 8.30899 -0.966194 0.809306 2.86083 -0.143275 0.809936 2.86753 -0.146082 -0.948896 3.73057 3.95848 -10.0532 -9.75657 21.4128 -0.182912 0.263715 0.868256 -22.8414 -5.84846 -2.41459 2.04812e-05 6.64412e-05 -68.1027 -2.24718 -5.31138 -3.04817 -0.0300944 0.631595 3.19375 50.6902 -8.2224 30.2718 3.05755e-05 -2.30245e-06 92.8831 30.6608 -0.111353 -19.7405 30.8906 -19.5366 28.9373 -6.06548 36.2735 -0.276635 -9.19362 -1.91887 0.711362 1.53858e-05 -7.12404 1.02664e-07 -18.9721 -28.9847 -15.0718 -5.57301 49.9759 11.7141 17.8694 -13.0573 7.74008 -6.45985e-06 -11.1096 2.25247e-05 
4.67148 94.7762 -6.82679 1.94912 0.0110733 -63.5587 2.85661 9.02039 -1.97886 0.51962 3.06921 -0.283418 0.516589 3.07512 -0.288497 -0.730349 3.51408 4.04946 -9.7816 -10.9214 22.0428 0.0712927 0.237939 0.900048 -22.1341 4.32204 -4.80071 1.64692e-05 7.56617e-05 -64.8683 -2.54483 -7.83926 -3.43385 0.177354 0.617972 2.75224 47.148 -2.79021 23.8378 3.06912e-05 3.98294e-06 85.0085 26.7392 -4.56916 -19.6549 31.4955 -20.3991 30.2483 -7.25286 35.1035 0.219589 -10.138 0.34716 0.929244 1.5385e-05 -6.68663 1.02569e-07 -18.552 -31.0155 -14.5534 -6.04875 49.3794 12.0282 17.8449 -12.9377 6.98017 -6.54249e-06 -10.9032 2.2509e-05 
5.11415 95.0641 -7.29586 3.74024 0.908852 -63.4873 2.31784 9.8831 -3.75741 0.261406 3.09269 -0.545354 0.252679 3.09693 -0.550944 -0.100164 3.38591 4.12268 -9.50545 -11.9398 23.1329 0.306344 0.181553 1.07888 -20.7763 14.1593 -8.06637 1.36807e-05 8.13414e-05 -62.8333 -2.75984 -12.3889 -4.58126 0.566892 0.644111 2.51367 35.7644 11.6714 20.6569 3.24809e-05 1.32624e-05 73.1587 10.0628 -19.3408 -12.4111 32.6378 -21.6385 32.2978 -8.65942 33.5582 0.717423 -12.3783 5.00931 1.57215 1.53864e-05 -7.45068 1.02739e-07 -17.7379 -32.9494 -13.7622 -6.55414 48.2008 12.3783 18.0589 -13.1339 6.03705 -6.6932e-06 -10.526 2.24809e-05 
5.63661 95.2529 -7.77365 5.82826 2.37094 -63.2308 1.91299 10.6717 -5.50017 0.185011 3.13314 -0.814967 0.170301 3.13866 -0.818311 0.697063 3.19814 4.13301 -9.4168 -12.9894 24.0988 0.35209 0.234021 0.0263218 -19.1769 21.4712 -11.5572 1.26823e-05 8.32582e-05 -62.1382 -3.18241 -16.4637 -5.99893 1.19635 0.68487 2.38021 28.7745 27.1896 19.5329 3.67339e-05 2.30321e-05 59.7918 -7.63292 -32.0247 -7.25893 34.2978 -23.7482 35.0178 -10.2558 33.0097 3.41524 -11.1716 7.89126 1.76083 1.53896e-05 -9.2122 1.03202e-07 -17.0158 -35.3846 -13.1658 -6.56737 47.2242 12.4138 18.2404 -13.5144 5.91194 -6.8563e-06 -10.1168 2.24517e-05 
6.30923 95.0666 -8.14138 8.17769 4.3045 -63.2754 1.93331 11.4895 -7.0242 0.0670289 3.30713 -1.04172 0.0458097 3.31115 -1.04651 1.52227 2.71199 4.18254 -9.18274 -14.4547 25.1155 0.33092 0.378048 -2.01753 -17.8588 24.3452 -14.5967 1.3901e-05 8.09106e-05 -62.9889 -2.85291 -15.8444 -7.08894 2.12085 0.722922 1.74067 32.2341 36.2108 18.3718 4.47981e-05 3.32188e-05 43.4749 -16.2731 -35.7201 -2.38915 36.8315 -26.8076 38.4898 -11.2107 34.3937 9.96825 -10.313 10.2339 1.72364 1.53938e-05 -11.4825 1.03952e-07 -16.6609 -38.5225 -12.834 -6.20714 46.737 12.2228 18.7041 -14.3213 7.89521 -7.13196e-06 -9.4228 2.24049e-05 
